<?xml version="1.0" encoding="utf-8"?>
<!-- Generated by IcoMoon.io -->
<!DOCTYPE svg PUBLIC "-//W3C//DTD SVG 1.1//EN" "http://www.w3.org/Graphics/SVG/1.1/DTD/svg11.dtd">

<svg version="1.1" xmlns="http://www.w3.org/2000/svg" xmlns:xlink="http://www.w3.org/1999/xlink" width="320" height="32" viewBox="0 0 320 32">
<defs>
<g id="icon-home">
	<path class="path1" d="M32 18.451l-16-12.42-16 12.42v-5.064l16-12.42 16 12.42zM28 18v12h-8v-8h-8v8h-8v-12l12-9z" />
</g>
<g id="icon-newspaper">
	<path class="path1" d="M28 8v-4h-28v22c0 1.105 0.895 2 2 2h27c1.657 0 3-1.343 3-3v-17h-4zM26 26h-24v-20h24v20zM4 10h20v2h-20zM16 14h8v2h-8zM16 18h8v2h-8zM16 22h6v2h-6zM4 14h10v10h-10z" />
</g>
<g id="icon-pencil">
	<path class="path1" d="M27 0c2.761 0 5 2.239 5 5 0 1.126-0.372 2.164-1 3l-2 2-7-7 2-2c0.836-0.628 1.874-1 3-1zM2 23l-2 9 9-2 18.5-18.5-7-7-18.5 18.5zM22.362 11.362l-14 14-1.724-1.724 14-14 1.724 1.724z" />
</g>
<g id="icon-music">
	<path class="path1" d="M10 6l22-6v23c0 2.761-3.134 5-7 5s-7-2.239-7-5c0-2.761 3.134-5 7-5 1.074 0 2.091 0.173 3 0.481v-10.3l-14 3.818v15c0 2.761-3.134 5-7 5-3.866 0-7-2.239-7-5 0-2.761 3.134-5 7-5 1.074 0 2.091 0.173 3 0.481v-16.481z" />
</g>
<g id="icon-podcast">
	<path class="path1" d="M32 16c0-8.837-7.163-16-16-16s-16 7.163-16 16c0 6.877 4.339 12.739 10.428 15.002l-0.428 0.998h12l-0.428-0.998c6.089-2.263 10.428-8.125 10.428-15.002zM15.212 19.838c-0.713-0.306-1.212-1.014-1.212-1.838 0-1.105 0.895-2 2-2 1.105 0 2 0.895 2 2 0 0.825-0.499 1.533-1.212 1.839l-0.788-1.839-0.788 1.838zM16.821 19.915c1.815-0.379 3.179-1.988 3.179-3.915 0-2.209-1.791-4-4-4-2.209 0-4 1.791-4 4 0 1.928 1.364 3.535 3.18 3.913l-2.332 5.441c-2.851-1.223-4.848-4.056-4.848-7.355 0-4.418 3.582-8.375 8-8.375s8 3.957 8 8.375c0 3.299-1.997 6.131-4.848 7.355l-2.331-5.439zM21.514 30.866l-2.31-5.39c3.951-1.336 6.796-5.073 6.796-9.476 0-5.523-4.477-10-10-10-5.523 0-10 4.477-10 10 0 4.402 2.845 8.14 6.796 9.476l-2.31 5.39c-4.987-2.14-8.481-7.095-8.481-12.866 0-7.729 6.266-14.37 13.995-14.37 7.729 0 13.995 6.641 13.995 14.37 0 5.771-3.494 10.726-8.481 12.866z" />
</g>
<g id="icon-user">
	<path class="path1" d="M19.463 21.96c-0.691-0.11-0.707-2.010-0.707-2.010s2.030-2.010 2.473-4.713c1.19 0 1.926-2.873 0.735-3.884 0.050-1.064 1.53-8.354-5.964-8.354-7.494 0-6.014 7.29-5.965 8.354-1.19 1.011-0.455 3.884 0.735 3.884 0.442 2.703 2.473 4.713 2.473 4.713s-0.016 1.9-0.707 2.010c-2.226 0.354-10.537 4.020-10.537 8.040h28c0-4.020-8.311-7.685-10.537-8.040z" />
</g>
<g id="icon-users">
	<path class="path1" d="M22.969 25.168c-0.592-0.093-0.606-1.708-0.606-1.708s1.74-1.708 2.119-4.005c1.020 0 1.65-2.442 0.63-3.301 0.043-0.904 1.311-7.099-5.112-7.099-6.424 0-5.155 6.195-5.112 7.099-1.020 0.859-0.39 3.301 0.63 3.301 0.379 2.297 2.12 4.005 2.12 4.005s-0.014 1.615-0.606 1.708c-1.908 0.301-9.031 3.416-9.031 6.832h24c0-3.416-7.124-6.531-9.031-6.832zM10.752 25.713c1.378-0.848 3.051-1.635 4.423-2.107-0.492-0.701-1.040-1.654-1.385-2.783-0.481-0.393-0.873-0.954-1.125-1.644-0.252-0.691-0.348-1.464-0.269-2.178 0.056-0.512 0.202-0.99 0.427-1.409-0.136-1.456-0.232-4.314 1.639-6.398 0.725-0.808 1.642-1.389 2.741-1.74-0.196-2.024-1.224-4.399-5.202-4.399-6.424 0-5.155 6.195-5.112 7.099-1.020 0.859-0.39 3.301 0.63 3.301 0.379 2.297 2.12 4.005 2.12 4.005s-0.014 1.615-0.606 1.708c-1.908 0.301-9.031 3.416-9.031 6.832h10.3c0.147-0.096 0.297-0.192 0.452-0.287z" />
</g>
</defs>

<g fill="#000000">
	<use xlink:href="#icon-home" transform="translate(0 0)"></use>
	<use xlink:href="#icon-newspaper" transform="translate(48 0)"></use>
	<use xlink:href="#icon-pencil" transform="translate(96 0)"></use>
	<use xlink:href="#icon-music" transform="translate(144 0)"></use>
	<use xlink:href="#icon-podcast" transform="translate(192 0)"></use>
	<use xlink:href="#icon-user" transform="translate(240 0)"></use>
	<use xlink:href="#icon-users" transform="translate(288 0)"></use>
</g>

</svg>
